<svg xmlns="http://www.w3.org/2000/svg" viewBox="11 97 245.8 66">

  
  <path d="m90.9 128.8 4.4-14.8h1.7l4.3 14.7h-2.7l-0.8-3.7v0.1h-3.8l-0.8-0.1-0.9 3.8h-1.4zm3.9-5.9h2.2c0.1 0 0-0.1 0-0.1l-1.1-5.8-1.1 5.9" fill="rgb(0, 174, 239)"/>
  <polygon points="102.2 128.8 103.7 128.8 103.7 116.7 102.2 116.7" fill="rgb(0, 174, 239)"/>
  <path d="m105.7 128.8v-11.8h5.4c0.8 0 1.4 0.8 1.4 2.1v2.9c0 1.3-0.6 2.2-1.4 2.2h-0.8l2.7 4.5h-2.9l-2.5-4.5h-1.4v4.5l-0.5 0.1zm4.1-6.7c0.8 0 1.2-0.1 1.2-1.1v-1.1c0-0.8-0.4-0.9-1.2-0.9h-2.6v3.1h2.6z" fill="rgb(0, 174, 239)"/>
  <polygon points="115.4 128.8 112.9 113.9 114.7 113.9 116.3 124 118.4 113.9 119.6 113.9 121.6 124 123.3 113.9 125 113.9 122.5 128.8 121.2 128.8 119 118.5 116.9 128.8" fill="rgb(0, 174, 239)"/>
  <path d="m124 128.8 3.3-12.1h1.7l3.4 12h-1.8l-0.6-2.8h-3.5l-0.6 2.8h-1.9v0.1zm2.7-5h2.7l-1.3-4.9-1.4 4.9z" fill="rgb(0, 174, 239)"/>
  <polygon points="135.6 128.8 132.2 116.7 133.9 116.7 136.3 125.3 138.8 116.7 140.2 116.7 136.6 128.8" fill="rgb(0, 174, 239)"/>
  <polygon points="140.8 128.8 140.8 116.7 147 116.7 147 118.9 142.3 118.9 142.3 121.5 144.9 121.5 144.9 123.5 142.3 123.5 142.3 126.4 146.9 126.4 146.9 128.8" fill="rgb(0, 174, 239)"/>
  <path d="m148 126.2 1.2-0.8v1h4.4v-2.8h-4.1c-0.9 0-1.4-1-1.4-2.4v-2.2c0-1.5 0.4-2.4 1.4-2.3h4c0.9 0 1.4 0.8 1.4 2.2v1l-1.3 0.7v-1.7h-4.1v2.4h4c0.9 0 1.5 0.7 1.5 2.2v2.9c0 1.5-0.4 2.4-1.4 2.4h-4.1c-1.1 0-1.5-0.7-1.5-2.6z" fill="rgb(0, 174, 239)"/>
  <path d="m162.1 117c0-2 0.5-3 1.7-3h4.2c1.2 0 1.6 1 1.6 3v2.3l-1.6 0.4v-3h-4v9.2h4v-2.6l1.6 0.2v2.4c0 2.2-0.4 2.9-1.6 2.9h-4.1c-1.2 0-1.7-0.7-1.7-2.9v-8.9h-0.1z" fill="rgb(0, 174, 239)"/>
  <path d="m171.6 119c0-1.5 0.4-2.3 1.2-2.3h4.9c0.9 0 1.5 0.8 1.5 2.3v7.4c0 1.5-0.4 2.4-1.3 2.4h-4.9c-0.8 0-1.3-0.8-1.3-2.4l-0.1-7.4zm1.5 7.4h4.6v-7.4h-4.6v7.4z" fill="rgb(0, 174, 239)"/>
  <polygon points="180.8 128.8 180.8 116.7 182 116.7 185 123.8 187.8 116.7 189.1 116.7 189.1 128.8 187.8 128.8 187.8 121 185.2 127.6 184.8 127.6 182.1 120.8 182.1 128.8" fill="rgb(0, 174, 239)"/>
  <polygon points="190.6 128.8 190.6 116.7 197.1 116.7 197.1 118.9 192.2 118.9 192.2 121.8 194.7 121.8 194.7 124.1 192.2 124.1 192.2 128.8" fill="rgb(0, 174, 239)"/>
  <path d="m197.7 119c0-1.5 0.4-2.4 1.3-2.3h4.9c0.9 0 1.5 0.8 1.5 2.3v7.4c0 1.5-0.4 2.4-1.2 2.4h-5c-1 0-1.4-0.7-1.4-2.4l-0.1-7.4zm1.5 7.4h4.8v-7.4h-4.8v7.4z" fill="rgb(0, 174, 239)"/>
  <path d="m206.6 128.8v-12.1h5.4c1.1 0 1.6 0.8 1.6 2.2v3.1c0 1.4-0.5 2.1-1.6 2.1h-0.5l2.7 4.6h-1.9l-2.8-4.6h-1.3v4.7h-1.6zm4.8-6.8c0.5 0 0.8-0.2 0.8-1v-1.1c0-0.6-0.3-1-0.8-1h-3.1v3.1h3.1z" fill="rgb(0, 174, 239)"/>
  <polygon points="218.5 118.9 218.5 128.5 216.9 128.5 216.9 118.9 214 118.9 214 116.7 221.6 116.7 221.6 118.9" fill="rgb(0, 174, 239)"/>
  <path d="m222.2 125c0.3 0 0.9 0.4 0.9 1.4v2.1c0 0.3-0.6 2.8-1.2 3.5l-0.6-0.4c0.3-0.6 1-2.6 1-3.1l-0.7-0.3v-1.8c-0.1-1.1 0.2-1.4 0.6-1.4z" fill="rgb(0, 174, 239)"/>
  <polygon points="227.4 128.8 227.4 116.7 229 116.7 229 126.4 233.8 126.4 233.8 128.8" fill="rgb(0, 174, 239)"/>
  <polygon points="234.6 128.8 234.6 116.7 236.2 116.7 236.2 126.4 241 126.4 241 128.8" fill="rgb(0, 174, 239)"/>
  <path d="m241.5 119c0-1.5 0.3-2.3 1.4-2.3h3.7c0.9 0 1.3 0.8 1.3 2.3v1.8l-1.3 0.4v-2.3h-3.6v7.5h3.6v-2.3l1.3 0.4v1.9c0 1.7-0.4 2.4-1.3 2.4h-3.7c-1.1 0-1.4-0.7-1.4-2.4v-7.4z" fill="rgb(0, 174, 239)"/>
  <g fill="#b3b3b3">
    <path d="m94.7 131.9h1.5l3.3 7.4h-1.6l-0.6-1.6h-3.4l-0.6 1.6h-1.6l3-7.4zm2 4.4-1.2-3.1-1.2 3.1h2.4z"/>
    <path d="m101.5 133.3h1.3v6h-1.3v-6z"/>
    <path d="m105.1 133.3h4.4c0.8 0 1.2 0.4 1.2 1.3v1.4c0 0.8-0.3 1.2-1.2 1.2h-0.7l2.2 2.3h-1.8l-1.8-2.3h-1v2.3h-1.1v-6.2h-0.2zm1.3 1v1.7h2.5c0.4 0 0.6 0 0.6-0.4v-0.8c0-0.4-0.2-0.4-0.6-0.4h-2.5v-0.1z"/>
    <path d="m118.8 133.3v4.6h3.5v-1.5l1.5 0.4v0.9c0 1.3-0.3 1.6-1.3 1.6h-3.7c-1.1 0-1.4-0.3-1.4-1.6v-4.1c0-1.3 0.3-1.7 1.4-1.7h3.7c1.1 0 1.3 0.4 1.3 1.7v0.8l-1.5 0.3v-1.2h-3.5v-0.2z"/>
    <path d="m127.4 133.3h4c0.9 0 1.2 0.3 1.2 1.4v3.4c0 1-0.3 1.3-1.2 1.3h-4c-0.9 0-1.2-0.3-1.2-1.3v-3.4c0-1.1 0.3-1.4 1.2-1.4zm0 4.8h3.9v-3.7h-3.9v3.7z"/>
    <path d="m134.5 133.3h0.9l3.9 3.8v-3.8h1.2v6h-0.9l-3.9-3.9v3.9h-1.2v-6z"/>
    <path d="m142.7 133.3h3.2c2 0 3 1.1 3 3s-1 3.1-3.1 3.1h-3v-6.1h-0.1zm2.5 4.8c1.5 0 2.2-0.4 2.2-2s-0.6-1.8-2.2-1.8h-1.3v3.8h1.3z"/>
    <path d="m150.6 133.3h1.3v6.1h-1.3v-6.1z"/>
    <path d="m157 139.4h-1.3v-4.9h-2.3v-1.2h5.9v1.1h-2.3v5z"/>
    <path d="m160.7 133.3h1.3v6.1h-1.3v-6.1z"/>
    <path d="m165.4 133.3h3.9c1 0 1.2 0.3 1.2 1.4v3.4c0 1-0.3 1.3-1.2 1.3h-3.9c-0.9 0-1.2-0.3-1.2-1.3v-3.4c0-1.1 0.3-1.4 1.2-1.4zm0.1 4.8h3.8v-3.7h-3.8v3.7z"/>
    <path d="m172.6 133.3h0.9l3.9 3.8v-3.8h1.2v6h-0.9l-3.9-3.9v3.9h-1.2v-6z"/>
    <path d="m180.9 133.3h1.3v6.1h-1.3v-6.1z"/>
    <path d="m184.3 133.3h0.9l3.9 3.8v-3.8h1.2v6h-0.9l-3.9-3.9v3.9h-1.2v-6z"/>
    <path d="m193.9 134.4v3.7h3.5v-1.2h-1.7v-1.1h2.9v2.3c0 1-0.3 1.3-1.2 1.3h-3.5c-0.9 0-1.3-0.3-1.3-1.3v-3.4c0-1.1 0.3-1.4 1.3-1.4h3.4c0.9 0 1.3 0.3 1.3 1.3v0.2l-1.2 0.2v-0.6h-3.5z"/>
  </g>
  <path d="m92.1 142.3h1.2v2.2h3.6v-2.2h1.2v5.8h-1.2v-2.5h-3.6v2.5h-1.2v-5.8z" fill="rgb(179, 179, 179)"/>
  <path d="m100.2 143.5h4.2v0.9h-3.2v1h1.8v0.9h-1.8v1.2h3.3v0.9h-4.2v-4.9h-0.1z" fill="rgb(179, 179, 179)"/>
  <path d="m107.5 143.5h1l2.3 4.6h-1.1l-0.4-1h-2.4l-0.4 1h-1l2-4.6zm1.3 2.8-0.9-1.8-0.7 1.8h1.6z" fill="rgb(179, 179, 179)"/>
  <path d="m113.7 148.1h-1v-3.7h-1.8v-0.9h4.6v0.9h-1.8v3.7z" fill="rgb(179, 179, 179)"/>
  <path d="m116.8 143.5h1v4.6h-1v-4.6z" fill="rgb(179, 179, 179)"/>
  <path d="m119.5 143.5h0.7l3.1 3v-3h0.9v4.6h-0.7l-3.1-3v3h-0.9v-4.6z" fill="rgb(179, 179, 179)"/>
  <path d="m126.7 144.4v2.8h2.9v-0.9h-1.5v-0.9h2.5v1.8c0 0.9-0.2 1.1-0.9 1.1h-3c-0.6 0-0.9-0.2-0.9-1.1v-2.7c0-0.8 0.3-1 0.9-1h3c0.6 0 0.9 0.2 0.9 1v0.1l-0.9 0.2v-0.4h-3z" fill="rgb(179, 179, 179)"/>
  <path d="m137.5 143.5h1l2.3 4.6h-1l-0.5-1h-2.5l-0.4 1h-0.9l2-4.6zm1.4 2.8-0.9-1.8-0.8 1.8h1.7z" fill="rgb(179, 179, 179)"/>
  <path d="m141.8 143.5h0.7l3.1 3v-3h0.8v4.6h-0.6l-3.1-3v3h-0.9v-4.6z" fill="rgb(179, 179, 179)"/>
  <path d="m148.2 143.5h2.5c1.6 0 2.4 0.9 2.4 2.3 0 1.6-0.9 2.4-2.6 2.4h-2.3v-4.7zm2 3.7c1.2 0 1.7-0.4 1.7-1.5s-0.4-1.4-1.4-1.4h-1.5v2.9h1.2z" fill="rgb(179, 179, 179)"/>
  <path d="m159.3 143.3v3.8h3v-1.3l1.1 0.3v0.7c0 1.1-0.3 1.3-1.2 1.3h-3c-0.9 0-1.1-0.3-1.1-1.3v-3.4c0-1 0.2-1.3 1.1-1.3h3c0.9 0 1.2 0.3 1.2 1.3v0.6l-1.1 0.2v-0.9h-3z" fill="rgb(179, 179, 179)"/>
  <path d="m166.4 143.5h3c0.6 0 0.9 0.2 0.9 1v2.7c0 0.8-0.2 1-0.9 1h-3c-0.6 0-0.9-0.2-0.9-1v-2.7c0-0.8 0.2-1 0.9-1zm3 3.7v-2.8h-2.9v2.8h2.9z" fill="rgb(179, 179, 179)"/>
  <path d="m173.1 143.5h3c0.7 0 1 0.2 1 1v2.7c0 0.8-0.3 1-1 1h-3c-0.6 0-0.9-0.2-0.9-1v-2.7c0.1-0.8 0.3-1 0.9-1zm3 3.7v-2.8h-2.8v2.8h2.8z" fill="rgb(179, 179, 179)"/>
  <path d="m178.8 143.5h1v3.7h3v0.9h-4v-4.6z" fill="rgb(179, 179, 179)"/>
  <path d="m183.9 143.5h1.1v4.7h-1.1v-4.7z" fill="rgb(179, 179, 179)"/>
  <path d="m186.7 143.5h0.7l3.1 3v-3h0.9v4.6h-0.7l-3.1-3v3h-0.9v-4.6z" fill="rgb(179, 179, 179)"/>
  <path d="m193.9 144.4v2.8h2.9v-0.9h-1.4v-0.9h2.4v1.8c0 0.9-0.2 1.1-0.9 1.1h-3c-0.5 0-0.8-0.2-0.8-1.1v-2.7c0-0.8 0.2-1 0.8-1h3c0.7 0 0.9 0.2 0.9 1v0.1l-0.9 0.2v-0.4h-3z" fill="rgb(179, 179, 179)"/>
  <path d="m78 110.9s1.6 6.8-3 10.8c-2.7 2.3-5.6 2.9-8.8 3.3l0.2-1.5c2.8-0.8 11-1 9.4-13.1-0.5 5.7-2 9.4-8.9 9.4-0.3-10.1-3.5-19.6-10.4-20.5-6.1-0.8-12.6 5.3-16.3 10.7l1 0.4c7.9-8.6 12.2-7.3 14.9-3.2 2.6 3.9 3 8.6 2.9 12.7l6.2 14.6c5.6 0.4 11.4-0.7 14.7-4.7 3.6-4.2 5-13.5-1.9-18.9z" fill="#00AEEF"/>
  <path d="m61.4 139.2-1.3 2.6-0.1 0.1c9.1-0.8 19.8-0.2 25-10.7 1.1-2.3 0.7-11 0.4-8-0.6 7.2-8.3 13.8-17.7 12.8h-2.6l-3.7 3.2z" fill="#00AEEF"/>
  <path d="m61.2 141.7c-3.5 0.2-4.9-0.3-6.2-0.5-4.2 7.4-9.9 13.8-15.5 12.8-3.3-0.7-6.4-5.8-6.8-10.6l-1.2 0.3c0 6.5 2.4 16 8.7 16.5 7.7 1.2 13.6-4.9 18.3-12.8 9.2 1.9 25.8 2.6 26.5-15.9-4 7.2-10.8 11.5-23.8 10.2z" fill="#00AEEF"/>
  <path d="m55.9 120.8-0.2-2.8c0.5-5-1.9-13.9-8.4-10.6-1.5 0.8-2.8 1.9-4 3.7l3 1c2.5-2.4 7.6-4.5 8.2 4.5-2.3-0.7-12.2-5.1-21.9-4.1-10.1 1.5-14.6 8-14.9 16.6 6.5-8.9 15-11.7 29.2-8.9l6.2 3 2.8-2.4z" fill="#F72D36"/>
  <path d="m49.9 143.4 1.4-1.1-7.3-4.6c-12-2.5-21 1.9-19.9 12-11.8-12.1-2.3-26.6 17.9-23.1l4.2 2.4-1.5 0.7c-8.5-3-24.7-2.6-27.1 11-1.7-13.3 9.3-23.7 29.1-19.1l6.3 2.5c2.1 6.5-2.5 17.6-3.1 19.3z" fill="#F72D36"/>
  <path d="m34.3 143.1 2.9 0.1c0 3.8 2.9 7.9 6.4 4.7 1.5-1 4.4-4.2 3.9-4.4-13.1-3.9-21.9-3.6-21.1 7-2.3-7.9 3-12.8 17.4-12.8l4.4 2.7 3.1 2c-2.9 4.9-6.2 9.3-10.9 9.3-3.1 0-6.1-4.5-6.1-8.6z" fill="#F72D36"/>
  <path d="m66 131.1c0 6-5 11.5-11.5 11.5-6.5 0.1-12.1-4.9-12.5-10.9-0.4-6.3 5.1-11.9 11.1-12 6.3-0.1 12.5 4.2 12.9 11.4z" fill="#fff" stroke="#bf2e3d" stroke-width=".527"/>
  <path d="m44.2 135.9 2.5-9.7h1.1l2.5 9.6h-0.9l-0.7-2-2.9-0.1-0.6 2.3-1-0.1zm2.1-3.7h2.2l-1.1-4.4-1.1 4.4z" fill="rgb(11, 187, 239)"/>
  <path d="m51.6 135.9-1.7-9.7h1.1l1 6.2 1.1-6.2h0.8l1.2 6.2 1.2-6.2h1l-1.7 9.7h-0.6l-1.4-6.7-1.3 6.7h-0.7z" fill="rgb(11, 187, 239)"/>
  <path d="m58.7 128.5v5.9h3.3v-1.9l1.1 0.4v1.4c0 1.3-0.3 1.7-1.2 1.6h-2.7c-0.9 0-1.1-0.4-1.1-1.7v-5.7c0-1.4 0.3-1.9 1.1-1.9h2.7c0.9 0 1.2 0.5 1.2 1.9v1.3l-1.1 0.3v-1.6h-3.3z" fill="rgb(11, 187, 239)"/>
  <path d="m53.7 119.7" fill="rgb(255, 255, 255)"/>
</svg>